<?xml version="1.0" standalone="no"?>
<!DOCTYPE svg PUBLIC "-//W3C//DTD SVG 20010904//EN"
 "http://www.w3.org/TR/2001/REC-SVG-20010904/DTD/svg10.dtd">
<svg version="1.0" xmlns="http://www.w3.org/2000/svg"
 width="881.000000pt" height="881.000000pt" viewBox="0 0 881.000000 881.000000"
 preserveAspectRatio="xMidYMid meet">
<metadata>
Created by potrace 1.11, written by Peter Selinger 2001-2013
</metadata>
<g transform="translate(0.000000,881.000000) scale(0.100000,-0.100000)"
fill="#000000" stroke="none">
<path d="M4935 6851 c-3 -6 -10 -9 -15 -6 -5 3 -11 1 -15 -5 -4 -6 -10 -8 -15
-5 -5 3 -12 1 -15 -5 -4 -6 -1 -9 7 -8 7 2 13 -4 12 -13 -1 -9 5 -16 12 -16 7
0 10 5 7 10 -4 6 -1 7 8 2 11 -6 12 -5 2 6 -18 18 -16 25 8 26 16 1 18 -1 10
-11 -8 -9 -7 -13 3 -13 9 0 13 8 10 20 -4 26 -10 31 -19 18z"/>
<path d="M4963 6835 c0 -8 5 -15 11 -15 15 0 44 20 29 20 -6 0 -18 2 -26 5 -8
4 -14 0 -14 -10z"/>
<path d="M4806 6829 c2 -4 1 -9 -3 -12 -5 -2 -2 -2 5 -1 6 2 12 -1 12 -6 0 -6
-7 -10 -16 -10 -8 0 -13 -4 -9 -10 3 -5 13 -6 23 -3 9 3 14 3 10 -2 -4 -4 -2
-15 5 -23 9 -13 9 -14 0 -8 -9 5 -11 2 -7 -8 3 -9 11 -13 17 -9 5 3 7 1 3 -5
-3 -5 0 -12 6 -15 7 -3 -8 -4 -34 -2 -26 1 -46 0 -44 -4 3 -4 -10 -7 -27 -8
-18 -1 -24 1 -15 4 11 3 15 11 12 21 -5 13 -4 14 4 4 7 -11 14 -9 32 10 13 12
20 17 16 11 -4 -8 -2 -13 6 -13 9 0 9 -3 -2 -10 -9 -6 -10 -10 -3 -10 30 0 26
37 -6 57 -16 10 -18 9 -14 -8 4 -15 2 -18 -11 -13 -9 3 -13 11 -9 18 3 6 2 7
-3 3 -5 -5 -9 -14 -9 -20 0 -22 -31 -19 -32 3 -1 11 2 18 7 15 4 -3 10 2 13
10 5 12 2 12 -18 3 -13 -6 -22 -14 -20 -18 6 -10 -20 -32 -28 -23 -11 10 -8
25 3 18 6 -3 10 -1 10 4 0 21 -19 10 -34 -19 -8 -17 -10 -28 -5 -25 5 4 9 1 9
-4 0 -6 -5 -11 -11 -11 -6 0 -9 -7 -5 -15 3 -8 1 -15 -5 -15 -6 0 -7 -5 -3
-12 5 -7 3 -8 -6 -3 -10 6 -12 4 -6 -10 5 -15 4 -16 -9 -5 -14 11 -19 7 -16
-12 0 -4 -7 -4 -16 -1 -10 4 -14 2 -10 -4 3 -5 0 -10 -8 -10 -10 0 -12 4 -5
12 5 7 7 15 3 19 -4 4 1 4 11 0 13 -5 17 -4 13 3 -4 6 1 17 10 24 14 12 16 12
8 -1 -4 -8 -4 -12 0 -7 12 10 15 38 4 31 -5 -3 -9 5 -10 18 0 22 -1 22 -9 3
-8 -18 -9 -18 -10 5 -2 14 -2 29 -1 34 1 5 -5 6 -14 3 -8 -4 -15 -2 -15 4 0 6
-5 7 -11 4 -7 -5 -4 -14 8 -28 9 -12 11 -16 3 -9 -20 17 -33 15 -26 -5 4 -13
1 -12 -13 5 -13 15 -22 19 -27 11 -3 -6 -1 -15 6 -19 8 -5 6 -9 -8 -12 -15 -4
-18 -1 -17 17 2 13 -3 22 -11 22 -8 0 -13 -6 -10 -13 3 -7 -2 -15 -10 -18 -9
-3 -12 -10 -9 -16 3 -5 -1 -10 -9 -10 -9 0 -16 -5 -16 -11 0 -5 6 -7 13 -3 9
6 8 3 -1 -8 -8 -9 -19 -14 -27 -12 -7 3 -15 -3 -18 -13 -4 -17 -5 -17 -6 1 -1
15 -4 16 -15 7 -9 -8 -16 -8 -20 -2 -5 7 -15 7 -32 1 -21 -8 -29 -6 -49 16
-20 21 -22 30 -14 51 5 14 7 28 4 31 -3 4 -9 -5 -12 -18 -6 -22 -7 -23 -14 -4
-6 15 -8 16 -8 2 -1 -19 -29 -18 -41 2 -6 9 -3 19 8 27 15 13 14 13 -8 8 -25
-5 -25 -5 -2 6 21 12 30 29 15 29 -5 0 -21 -7 -36 -15 -19 -9 -25 -10 -21 -2
5 9 3 9 -7 0 -16 -15 -33 -17 -24 -3 3 6 4 10 0 10 -3 0 -10 -11 -15 -25 -10
-26 -24 -32 -35 -16 -3 6 -17 6 -35 -1 -18 -6 -27 -14 -23 -21 4 -7 -1 -6 -10
2 -9 7 -17 9 -17 5 0 -8 -31 -13 -93 -15 -9 0 -15 -4 -12 -9 6 -10 -14 -18
-42 -15 -26 2 -27 1 -14 -24 7 -13 6 -18 -4 -18 -7 0 -11 6 -8 13 16 42 -64
-5 -205 -120 -69 -56 -88 -83 -58 -83 8 0 13 8 11 19 -5 25 11 14 18 -12 3
-13 0 -20 -9 -20 -8 0 -14 -5 -14 -11 0 -5 6 -7 13 -3 8 5 8 2 -2 -9 -7 -9
-10 -17 -5 -17 4 0 3 -5 -3 -11 -8 -8 -17 -5 -31 9 -11 11 -19 22 -17 24 2 2
-5 4 -15 5 -11 1 -19 -3 -17 -9 1 -6 -8 -12 -21 -13 -45 -4 -158 -149 -230
-297 -59 -119 -115 -275 -105 -290 3 -6 1 -8 -4 -5 -6 4 -13 -5 -17 -21 -3
-15 -15 -58 -25 -97 -11 -38 -18 -72 -15 -74 2 -2 0 -9 -6 -16 -11 -13 -32
-138 -35 -205 -1 -25 3 -51 9 -59 8 -11 8 -13 -1 -8 -13 8 -10 -45 8 -143 15
-81 19 -110 35 -264 3 -33 8 -69 10 -80 3 -12 7 -42 11 -68 3 -27 10 -48 15
-48 5 0 6 -4 3 -10 -5 -8 17 -113 32 -150 3 -8 7 -22 9 -32 13 -64 122 -272
199 -378 18 -25 54 -83 80 -130 80 -143 163 -263 233 -338 158 -170 214 -257
218 -339 3 -77 -6 -104 -123 -348 -274 -571 -384 -880 -499 -1402 -29 -133
-42 -395 -24 -493 6 -30 11 -61 12 -67 1 -7 5 -13 9 -13 5 0 5 -7 2 -17 -4
-11 -3 -14 5 -9 7 4 10 2 7 -7 -3 -7 6 -30 20 -51 14 -20 25 -39 25 -42 0 -8
72 -76 96 -91 87 -56 383 -180 479 -200 79 -17 450 -22 570 -8 100 12 97 11
130 18 17 4 44 9 60 12 17 2 53 11 80 18 28 8 118 33 202 55 161 45 302 98
473 180 157 74 209 115 335 257 33 37 65 73 70 79 6 6 35 40 65 76 30 36 63
74 73 85 32 35 65 99 82 160 18 59 24 247 10 305 -3 14 -8 41 -11 60 -11 62
-46 143 -107 244 -104 174 -170 259 -367 480 -19 21 -39 44 -45 50 -30 35
-330 358 -389 420 -21 23 -89 93 -150 156 -144 148 -187 202 -220 272 -55 120
-28 210 115 378 45 52 157 192 249 310 92 118 202 258 245 310 195 241 416
522 505 645 24 33 46 62 50 65 23 18 148 195 143 203 -3 6 -1 7 4 4 12 -7 36
16 27 26 -3 3 4 8 15 12 12 3 19 11 15 16 -3 5 -10 6 -16 3 -7 -4 -8 -2 -4 5
4 6 11 9 16 6 9 -5 64 35 57 42 -3 2 10 21 29 41 l33 36 -27 18 c-15 10 -22
18 -17 18 6 0 3 5 -5 11 -11 8 -9 9 10 3 22 -6 23 -5 11 10 -11 13 -11 20 -3
28 7 7 12 17 12 22 0 6 -5 5 -12 -2 -7 -7 -17 -12 -22 -12 -6 0 -3 5 7 11 13
8 15 14 7 30 -6 11 -16 16 -22 13 -6 -4 -8 -3 -4 4 3 6 -2 15 -11 21 -10 6
-13 11 -7 11 5 0 15 -5 21 -11 8 -8 17 -8 33 1 16 9 25 9 36 -1 22 -18 25 -7
4 19 -10 12 -21 18 -25 13 -3 -6 -13 -7 -22 -4 -11 4 -14 3 -9 -5 4 -7 2 -12
-3 -12 -6 0 -11 3 -11 8 0 15 16 28 35 28 15 0 20 6 18 24 -1 14 1 19 3 12 8
-17 24 -5 18 13 -4 8 -10 12 -15 9 -5 -3 -6 3 -2 13 6 15 4 16 -9 5 -8 -6 -14
-23 -13 -35 2 -15 -2 -24 -11 -24 -7 0 -11 4 -8 8 2 4 0 10 -6 14 -5 3 -10 1
-10 -5 0 -6 -4 -8 -10 -5 -5 3 -10 1 -10 -6 0 -7 -3 -9 -7 -5 -5 4 1 14 11 22
15 11 22 11 35 1 12 -10 14 -9 8 6 -4 10 -7 21 -7 23 0 3 -6 2 -12 -2 -10 -6
-10 -4 0 8 11 13 9 16 -12 16 -23 0 -31 -16 -14 -28 4 -3 -2 -11 -13 -19 -17
-10 -20 -10 -13 1 5 7 9 22 9 33 0 11 7 21 15 21 8 1 21 2 29 3 22 2 2 16 -22
16 -12 0 -27 -6 -33 -14 -9 -11 -11 -11 -11 3 0 9 5 16 11 16 6 0 4 5 -4 11
-13 9 -13 10 0 8 40 -4 53 1 41 15 -9 11 -9 16 0 22 8 4 9 3 5 -4 -4 -7 -3
-12 2 -12 13 0 22 48 10 54 -5 2 -3 3 4 2 7 -2 12 -15 11 -29 -1 -15 2 -27 8
-27 6 0 7 5 3 12 -4 7 -3 8 5 4 6 -4 10 -4 9 1 -3 7 7 15 15 12 23 -7 44 -5
59 5 17 12 17 13 -7 24 -15 7 -23 17 -19 26 4 10 0 14 -14 13 -12 0 -18 -5
-16 -9 3 -5 11 -6 17 -2 7 3 4 -1 -6 -9 -13 -11 -15 -16 -5 -20 7 -2 10 -7 7
-11 -10 -10 -59 18 -54 32 3 8 0 10 -7 6 -8 -5 -9 -2 -5 10 4 11 3 15 -4 11
-6 -4 -8 -13 -5 -21 3 -7 1 -16 -4 -19 -5 -3 -7 -12 -3 -20 4 -11 1 -13 -11
-9 -9 4 -14 9 -12 12 3 3 1 11 -5 19 -6 7 -8 13 -5 13 4 0 2 9 -4 20 -12 23
-32 18 -24 -5 4 -8 9 -13 13 -10 4 2 7 -12 6 -31 -1 -19 2 -37 6 -40 5 -3 9
-10 9 -17 0 -6 -6 -3 -13 8 -13 17 -14 17 -20 -6 -3 -13 -9 -20 -12 -17 -4 3
-2 15 4 26 9 16 6 23 -12 36 l-22 17 23 -11 c13 -6 22 -7 22 -1 0 5 -12 14
-27 20 l-28 11 27 -5 c21 -4 26 -2 22 10 -10 24 -59 9 -59 -18 0 -5 -7 -12
-15 -14 -13 -4 -13 -3 0 6 14 10 7 16 -13 12 -5 -1 -6 3 -2 9 3 6 10 8 15 5
11 -7 41 35 34 47 -3 4 -10 6 -15 2 -5 -3 -7 -9 -4 -14 3 -4 -2 -11 -11 -14
-11 -4 -15 -2 -11 7 3 8 1 20 -4 28 -7 11 -9 10 -10 -6 -1 -11 -1 -25 0 -32 1
-6 -3 -14 -9 -18 -6 -3 -7 0 -4 9 3 9 2 16 -3 16 -5 0 -9 10 -9 23 1 12 -3 22
-9 22 -5 0 -9 -2 -8 -5 1 -3 -7 -7 -18 -7 -11 -1 -17 2 -14 8 4 5 -3 9 -15 9
-13 0 -19 -4 -14 -11 5 -8 -1 -10 -20 -7 -24 5 -27 3 -24 -17 3 -13 0 -22 -9
-22 -9 0 -11 8 -8 21 6 21 6 21 -9 2 -9 -11 -16 -16 -16 -10 0 5 -5 1 -11 -9
-8 -13 -14 -15 -29 -7 -30 16 -45 13 -29 -7 13 -16 12 -17 -4 -4 -19 15 -13
27 18 33 17 4 16 7 -10 18 -16 7 -37 13 -45 12 -10 -1 -11 0 -2 4 6 3 9 11 5
17 -4 7 1 5 12 -3 16 -14 17 -13 11 6 -3 12 0 28 10 40 15 18 15 18 5 -3 -13
-26 -14 -44 -2 -24 6 9 11 10 15 2 4 -6 3 -11 -2 -11 -6 0 -12 -7 -16 -15 -3
-9 0 -15 9 -15 8 0 15 7 15 15 0 13 3 13 19 3 15 -9 17 -15 9 -25 -7 -8 -7
-13 0 -13 14 0 22 24 12 40 -5 7 -6 22 -4 33 3 15 1 18 -8 9 -14 -14 -53 31
-45 52 3 7 0 19 -6 25 -6 6 -7 11 -1 11 5 0 11 10 11 22 2 16 0 19 -6 10 -7
-11 -9 -10 -14 2 -4 9 -11 16 -17 16 -6 0 -4 -7 4 -16 18 -17 22 -39 6 -29 -5
3 -7 0 -4 -9 4 -11 0 -14 -15 -11 -22 4 -29 -9 -11 -20 6 -3 10 0 10 7 0 9 4
8 15 -3 16 -16 11 -49 -7 -49 -5 0 -7 -4 -3 -9 3 -5 -4 -16 -15 -24 -11 -7
-18 -17 -15 -20 3 -4 2 -5 -2 -2 -3 3 -11 0 -18 -5 -8 -7 -12 -5 -12 5 0 7 3
13 6 13 14 -3 40 15 35 24 -3 5 2 15 11 22 15 11 15 13 1 25 -13 11 -19 11
-31 1 -10 -9 -15 -9 -15 -1 0 6 4 11 8 11 14 0 7 41 -8 50 -11 7 -8 12 13 21
15 7 27 16 27 21 0 5 -11 1 -24 -7 -26 -17 -40 -8 -30 18 3 8 1 18 -5 22 -6 3
-9 0 -5 -8 8 -22 -10 -28 -32 -12 -18 15 -18 15 1 9 15 -5 17 -4 9 5 -15 17
-47 21 -57 7 -9 -14 -4 25 6 41 5 8 -1 20 -14 30 -12 10 -28 24 -35 31 -11 11
-18 11 -28 3 -10 -8 -16 -9 -21 -1 -3 5 -11 10 -17 10 -6 0 -3 -9 7 -20 10
-11 13 -20 7 -20 -7 0 -12 5 -12 11 0 5 -5 7 -12 3 -7 -4 -8 -3 -4 4 4 7 3 12
-3 12 -5 0 -12 -6 -14 -12 -4 -10 -6 -10 -6 0 -1 7 6 15 14 18 8 4 12 10 9 16
-3 5 -11 4 -20 -3 -8 -6 -14 -8 -14 -4 0 4 -6 2 -14 -4 -11 -10 -18 -7 -30 11
-14 19 -18 21 -26 8 -7 -12 -9 -10 -8 7 2 14 7 19 18 15 12 -5 13 -3 2 10 -7
9 -24 14 -45 12 -17 -1 -26 0 -19 3 23 9 2 21 -31 18 -17 -2 -24 -1 -14 1 9 3
17 10 17 15 0 6 -4 7 -10 4 -5 -3 -10 -1 -10 4 0 6 -8 11 -17 11 -10 0 -25 5
-33 10 -13 8 -13 11 -1 22 9 8 11 9 7 1 -9 -16 13 -28 27 -14 9 9 8 11 -6 5
-10 -3 -17 -3 -16 2 1 5 1 15 0 23 -1 11 -4 11 -18 0 -11 -10 -14 -10 -9 -1 4
7 2 12 -7 12 -19 0 -31 30 -17 44 16 16 12 25 -8 19 -12 -3 -22 4 -31 20 -12
22 -16 24 -50 15 -20 -5 -43 -10 -52 -12 -8 -1 -23 -9 -31 -17 -15 -13 -15
-16 -1 -31 14 -16 14 -16 -10 -5 -14 6 -23 16 -20 21 4 5 1 6 -6 2 -9 -6 -9
-11 -1 -21 8 -9 5 -14 -10 -18 -25 -7 -48 28 -25 37 23 8 18 29 -5 23 -18 -5
-25 6 -22 34 1 3 -5 6 -13 6 -8 0 -12 -4 -9 -8z m181 -61 c4 -28 -6 -18 -12
12 -2 12 -1 20 2 16 4 -4 8 -16 10 -28z m60 23 c9 8 13 8 13 0 0 -6 -5 -11
-11 -11 -5 0 -8 -4 -5 -8 3 -5 -1 -9 -9 -9 -8 0 -12 4 -9 8 2 4 0 10 -6 14 -5
3 -10 -2 -10 -11 0 -10 -3 -15 -6 -11 -4 3 -4 14 0 23 5 13 10 14 18 6 8 -8
15 -9 25 -1z m-77 -42 c0 -5 -5 -9 -12 -9 -6 0 -8 3 -5 7 4 3 1 13 -6 22 -11
14 -10 14 6 2 9 -7 17 -17 17 -22z m-864 -4 c-1 -8 -5 -17 -8 -21 -5 -4 -4 16
1 34 3 9 9 -1 7 -13z m599 -17 c-2 -37 -23 -88 -37 -88 -5 0 -6 5 -3 10 3 6 1
10 -5 10 -6 0 -8 5 -5 10 4 6 9 8 13 6 4 -2 13 2 20 10 11 12 10 14 -5 15 -11
0 -13 3 -5 6 6 2 9 9 6 14 -4 8 12 39 20 39 1 0 1 -15 1 -32z m380 2 c-3 -4 2
-10 10 -14 8 -3 15 -14 15 -25 0 -21 -28 -37 -43 -22 -6 6 -2 9 9 8 10 -1 20
6 22 15 2 13 -1 16 -13 12 -12 -5 -16 -2 -14 12 2 10 -1 26 -6 34 -8 13 -7 13
8 1 9 -7 15 -17 12 -21z m-415 0 c0 -5 -2 -10 -4 -10 -3 0 -8 5 -11 10 -3 6
-1 10 4 10 6 0 11 -4 11 -10z m-745 -9 c3 -5 2 -12 -3 -15 -5 -3 -9 1 -9 9 0
17 3 19 12 6z m610 -11 c-3 -5 -12 -10 -18 -10 -7 0 -6 4 3 10 19 12 23 12 15
0z m455 6 c0 -3 -4 -8 -10 -11 -5 -3 -10 -1 -10 4 0 6 5 11 10 11 6 0 10 -2
10 -4z m-490 -10 c0 -2 -7 -7 -16 -10 -8 -3 -12 -2 -9 4 6 10 25 14 25 6z
m528 -21 c-3 -3 -9 2 -12 12 -6 14 -5 15 5 6 7 -7 10 -15 7 -18z m-973 5 c3
-6 -1 -7 -9 -4 -18 7 -21 14 -7 14 6 0 13 -4 16 -10z m515 1 c0 -6 -4 -12 -8
-15 -5 -3 -9 1 -9 9 0 8 4 15 9 15 4 0 8 -4 8 -9z m254 -3 c-3 -4 -11 -5 -19
-1 -21 7 -19 12 4 10 11 0 18 -5 15 -9z m110 4 c3 -5 -1 -9 -9 -9 -8 0 -12 4
-9 9 3 4 7 8 9 8 2 0 6 -4 9 -8z m-1182 -27 c-2 -14 -8 -22 -13 -19 -5 3 -9 0
-9 -6 0 -7 8 -9 20 -5 11 4 20 2 20 -4 0 -6 -7 -12 -15 -12 -36 -3 -66 -19
-58 -32 4 -6 1 -7 -7 -2 -10 6 -10 10 2 19 8 6 14 19 12 29 -1 9 1 15 5 13 4
-3 15 6 25 20 23 30 24 30 18 -1z m1006 10 c-2 -6 -6 -9 -10 -7 -5 1 -8 -5 -8
-15 0 -9 -3 -14 -6 -10 -9 9 6 49 18 45 5 -2 8 -8 6 -13z m-255 -20 c-3 -9 -8
-14 -10 -11 -3 3 -2 9 2 15 9 16 15 13 8 -4z m-58 -4 c3 -5 2 -12 -3 -15 -5
-3 -9 1 -9 9 0 17 3 19 12 6z m565 5 c0 -2 -7 -7 -16 -10 -8 -3 -12 -2 -9 4 6
10 25 14 25 6z m-1062 -31 c-3 -3 -9 2 -12 12 -6 14 -5 15 5 6 7 -7 10 -15 7
-18z m767 5 c3 -6 -1 -7 -9 -4 -18 7 -21 14 -7 14 6 0 13 -4 16 -10z m329 -30
c-6 -6 -10 -3 -10 10 0 13 4 16 10 10 7 -7 7 -13 0 -20z m-577 0 c-1 -21 -10
-18 -13 5 -1 8 2 15 6 15 5 0 8 -9 7 -20z m114 -3 c-10 -9 -11 -8 -5 6 3 10 9
15 12 12 3 -3 0 -11 -7 -18z m203 15 c3 -5 -1 -9 -9 -9 -8 0 -12 4 -9 9 3 4 7
8 9 8 2 0 6 -4 9 -8z m-1034 -22 c0 -5 -2 -10 -4 -10 -3 0 -8 5 -11 10 -3 6
-1 10 4 10 6 0 11 -4 11 -10z m284 2 c3 -5 -1 -9 -9 -9 -8 0 -12 4 -9 9 3 4 7
8 9 8 2 0 6 -4 9 -8z m216 4 c0 -3 -4 -8 -10 -11 -5 -3 -10 -1 -10 4 0 6 5 11
10 11 6 0 10 -2 10 -4z m100 -6 c0 -5 -2 -10 -4 -10 -3 0 -8 5 -11 10 -3 6 -1
10 4 10 6 0 11 -4 11 -10z m160 6 c0 -3 -4 -8 -10 -11 -5 -3 -10 -1 -10 4 0 6
5 11 10 11 6 0 10 -2 10 -4z m480 0 c0 -2 -7 -7 -16 -10 -8 -3 -12 -2 -9 4 6
10 25 14 25 6z m178 -21 c-3 -3 -9 2 -12 12 -6 14 -5 15 5 6 7 -7 10 -15 7
-18z m-578 -3 c0 -4 -10 -9 -22 -9 -18 -2 -20 0 -8 7 18 12 30 13 30 2z m211
-9 c13 -16 12 -17 -3 -4 -17 13 -22 21 -14 21 2 0 10 -8 17 -17z m325 -18 c-1
-8 -5 -17 -8 -21 -4 -3 -5 2 -4 13 2 10 -2 25 -8 33 -9 13 -9 13 6 2 9 -7 15
-19 14 -27z m-1156 11 c0 -3 -4 -8 -10 -11 -5 -3 -10 -1 -10 4 0 6 5 11 10 11
6 0 10 -2 10 -4z m380 -6 c0 -5 -2 -10 -4 -10 -3 0 -8 5 -11 10 -3 6 -1 10 4
10 6 0 11 -4 11 -10z m684 2 c3 -5 -1 -9 -9 -9 -8 0 -12 4 -9 9 3 4 7 8 9 8 2
0 6 -4 9 -8z m36 4 c0 -3 -4 -8 -10 -11 -5 -3 -10 -1 -10 4 0 6 5 11 10 11 6
0 10 -2 10 -4z m201 -23 c13 -16 12 -17 -3 -4 -10 7 -18 15 -18 17 0 8 8 3 21
-13z m-111 3 c0 -2 -8 -10 -17 -17 -16 -13 -17 -12 -4 4 13 16 21 21 21 13z
m83 -16 c3 -11 1 -18 -4 -14 -5 3 -9 12 -9 20 0 20 7 17 13 -6z m71 12 c3 -5
-1 -9 -9 -9 -8 0 -15 4 -15 9 0 4 4 8 9 8 6 0 12 -4 15 -8z m-930 -20 c3 -5
-1 -9 -9 -9 -8 0 -12 4 -9 9 3 4 7 8 9 8 2 0 6 -4 9 -8z m530 0 c3 -5 -1 -9
-9 -9 -8 0 -12 4 -9 9 3 4 7 8 9 8 2 0 6 -4 9 -8z m151 -2 c3 -5 1 -10 -4 -10
-6 0 -11 5 -11 10 0 6 2 10 4 10 3 0 8 -4 11 -10z m284 -8 c7 -13 6 -19 -2
-19 -7 0 -13 9 -13 19 0 10 1 18 3 18 1 0 7 -8 12 -18z m121 -8 c0 -8 -4 -14
-10 -14 -5 0 -6 7 -3 17 5 12 3 14 -7 8 -9 -5 -11 -4 -6 4 9 14 26 5 26 -15z
m-70 2 c0 -2 -7 -7 -16 -10 -8 -3 -12 -2 -9 4 6 10 25 14 25 6z m108 -18 c-2
-6 -15 -13 -29 -15 -18 -2 -20 -1 -9 6 8 5 18 7 22 5 4 -3 8 0 8 5 0 6 3 11 6
11 3 0 4 -5 2 -12z m-963 -7 c-9 -8 -36 -10 -30 -2 2 4 11 8 20 8 8 0 13 -3
10 -6z m680 -1 c3 -5 1 -10 -4 -10 -6 0 -11 5 -11 10 0 6 2 10 4 10 3 0 8 -4
11 -10z m-62 -13 c4 3 7 1 7 -5 0 -17 -16 -15 -31 6 -12 15 -12 16 2 5 9 -7
19 -10 22 -6z m-56 -12 c0 -8 -4 -12 -9 -9 -5 3 -6 10 -3 15 9 13 12 11 12 -6z
m243 5 c0 -5 -5 -10 -11 -10 -5 0 -7 5 -4 10 3 6 8 10 11 10 2 0 4 -4 4 -10z
m54 -6 c3 -8 2 -12 -4 -9 -6 3 -10 10 -10 16 0 14 7 11 14 -7z m96 2 c0 -2 -7
-7 -16 -10 -8 -3 -12 -2 -9 4 6 10 25 14 25 6z m-96 -42 c3 -8 2 -12 -4 -9 -6
3 -10 10 -10 16 0 14 7 11 14 -7z m-277 -19 c0 -8 -4 -12 -9 -9 -5 3 -6 10 -3
15 9 13 12 11 12 -6z m43 9 c0 -8 -19 -13 -24 -6 -3 5 1 9 9 9 8 0 15 -2 15
-3z m300 -8 c0 -2 -8 -10 -17 -17 -16 -13 -17 -12 -4 4 13 16 21 21 21 13z
m-1365 -16 c3 -5 1 -10 -4 -10 -6 0 -11 5 -11 10 0 6 2 10 4 10 3 0 8 -4 11
-10z m922 -5 c0 -8 -4 -12 -9 -9 -5 3 -6 10 -3 15 9 13 12 11 12 -6z m557 -1
c5 -13 4 -14 -7 -6 -8 7 -17 9 -20 5 -4 -3 -7 -1 -7 5 0 18 27 14 34 -4z
m-479 -6 c5 4 5 1 1 -6 -6 -10 -11 -10 -22 -1 -8 6 -14 14 -14 16 0 3 6 0 13
-6 8 -6 18 -7 22 -3z m59 -10 c-3 -4 -11 -5 -19 -1 -21 7 -19 12 4 10 11 0 18
-5 15 -9z m186 2 c0 -5 -5 -10 -11 -10 -5 0 -7 5 -4 10 3 6 8 10 11 10 2 0 4
-4 4 -10z m-1260 -10 c0 -5 -5 -10 -11 -10 -5 0 -7 5 -4 10 3 6 8 10 11 10 2
0 4 -4 4 -10z m80 -4 c0 -2 -7 -7 -16 -10 -8 -3 -12 -2 -9 4 6 10 25 14 25 6z
m1275 -14 c-3 -3 -11 0 -18 7 -9 10 -8 11 6 5 10 -3 15 -9 12 -12z m69 10 c3
-5 -1 -9 -9 -9 -8 0 -15 4 -15 9 0 4 4 8 9 8 6 0 12 -4 15 -8z m41 -2 c3 -6
-1 -7 -9 -4 -18 7 -21 14 -7 14 6 0 13 -4 16 -10z m29 -6 c3 -8 2 -12 -4 -9
-6 3 -10 10 -10 16 0 14 7 11 14 -7z m-1497 -10 c-3 -3 -12 -4 -19 -1 -8 3 -5
6 6 6 11 1 17 -2 13 -5z m-17 -18 c0 -3 -4 -8 -10 -11 -5 -3 -10 -1 -10 4 0 6
5 11 10 11 6 0 10 -2 10 -4z m1514 -8 c-3 -4 -11 -5 -19 -1 -21 7 -19 12 4 10
11 0 18 -5 15 -9z m-283 -35 c-12 -20 -14 -14 -5 12 4 9 9 14 11 11 3 -2 0
-13 -6 -23z m109 23 c0 -3 -4 -8 -10 -11 -5 -3 -10 -1 -10 4 0 6 5 11 10 11 6
0 10 -2 10 -4z m230 -25 c0 -5 -7 -12 -16 -15 -14 -5 -15 -4 -4 9 14 17 20 19
20 6z m109 -17 c4 3 8 -1 8 -9 0 -13 -4 -12 -19 2 -10 9 -18 21 -18 27 0 6 5
3 11 -7 6 -9 14 -15 18 -13z m-399 2 c0 -3 -4 -8 -10 -11 -5 -3 -10 -1 -10 4
0 6 5 11 10 11 6 0 10 -2 10 -4z m237 -33 c0 -8 -6 -9 -17 -3 -10 5 -20 7 -23
4 -3 -3 -7 -1 -10 3 -3 5 7 9 22 8 15 0 28 -5 28 -12z m-124 -8 c-3 -9 -8 -14
-10 -11 -3 3 -2 9 2 15 9 16 15 13 8 -4z m227 -24 c0 -4 -11 -7 -24 -7 -14 0
-23 3 -21 6 5 9 45 10 45 1z m-220 -21 c0 -5 -5 -10 -11 -10 -5 0 -7 5 -4 10
3 6 8 10 11 10 2 0 4 -4 4 -10z m44 2 c3 -5 -1 -9 -9 -9 -8 0 -12 4 -9 9 3 4
7 8 9 8 2 0 6 -4 9 -8z m96 -2 c0 -5 -2 -10 -4 -10 -3 0 -8 5 -11 10 -3 6 -1
10 4 10 6 0 11 -4 11 -10z m180 -20 c0 -5 -5 -10 -11 -10 -5 0 -7 5 -4 10 3 6
8 10 11 10 2 0 4 -4 4 -10z m-135 -18 c-3 -3 -11 0 -18 7 -9 10 -8 11 6 5 10
-3 15 -9 12 -12z m105 2 c0 -8 -19 -13 -24 -6 -3 5 1 9 9 9 8 0 15 -2 15 -3z
m-275 -13 c3 -5 2 -12 -3 -15 -5 -3 -9 1 -9 9 0 17 3 19 12 6z m764 -18 c2 -2
-3 -3 -11 -3 -9 0 -19 7 -22 16 -6 15 -4 15 11 3 10 -7 20 -15 22 -16z m-589
14 c0 -2 -10 -12 -22 -23 l-23 -19 19 23 c18 21 26 27 26 19z m27 -12 c0 -8
-4 -12 -9 -9 -5 3 -6 10 -3 15 9 13 12 11 12 -6z m207 3 c-3 -4 -9 -8 -15 -8
-5 0 -9 4 -9 8 0 5 7 9 15 9 8 0 12 -4 9 -9z m71 2 c3 -5 1 -10 -4 -10 -6 0
-11 5 -11 10 0 6 2 10 4 10 3 0 8 -4 11 -10z m78 -35 c-3 -9 -8 -14 -10 -11
-3 3 -2 9 2 15 9 16 15 13 8 -4z m-473 -5 c0 -5 -5 -10 -11 -10 -5 0 -7 5 -4
10 3 6 8 10 11 10 2 0 4 -4 4 -10z m50 -13 c0 -2 -10 -12 -22 -23 l-23 -19 19
23 c18 21 26 27 26 19z m35 -7 c-3 -5 -12 -10 -18 -10 -7 0 -6 4 3 10 19 12
23 12 15 0z m305 4 c0 -8 -19 -13 -24 -6 -3 5 1 9 9 9 8 0 15 -2 15 -3z m64
-10 c3 -8 2 -12 -4 -9 -6 3 -10 10 -10 16 0 14 7 11 14 -7z m28 -21 c-6 -2
-10 -8 -8 -12 3 -4 -1 -8 -9 -8 -11 0 -12 4 -4 14 6 7 17 13 23 12 7 0 6 -2
-2 -6z m-368 -11 c2 -4 -5 -9 -17 -9 -17 -2 -19 0 -7 7 18 12 18 12 24 2z
m306 -2 c0 -5 -5 -10 -11 -10 -5 0 -7 5 -4 10 3 6 8 10 11 10 2 0 4 -4 4 -10z
m-63 -15 c0 -8 -4 -12 -9 -9 -5 3 -6 10 -3 15 9 13 12 11 12 -6z m-327 -10
c-8 -10 -9 -15 -2 -15 6 0 16 8 21 18 6 9 11 12 11 5 0 -6 -4 -15 -10 -18 -5
-3 -10 -11 -10 -16 0 -6 4 -8 9 -5 5 4 8 -2 7 -11 -2 -10 3 -24 11 -31 15 -16
18 -46 3 -37 -5 3 -10 1 -10 -4 0 -6 -5 -11 -12 -11 -9 0 -9 3 0 12 17 17 15
28 -4 28 -9 0 -12 -5 -8 -12 4 -7 3 -9 -1 -5 -12 10 -16 39 -5 32 13 -8 6 21
-9 39 -11 13 -11 19 -1 31 7 8 15 15 17 15 3 0 0 -7 -7 -15z m361 -2 c13 -16
12 -17 -3 -4 -10 7 -18 15 -18 17 0 8 8 3 21 -13z m59 -7 c0 -2 -8 -10 -17
-17 -16 -13 -17 -12 -4 4 13 16 21 21 21 13z m-146 -24 c3 -5 -1 -9 -9 -9 -8
0 -12 4 -9 9 3 4 7 8 9 8 2 0 6 -4 9 -8z m106 2 c0 -8 -19 -13 -24 -6 -3 5 1
9 9 9 8 0 15 -2 15 -3z m65 -12 c-3 -3 -11 0 -18 7 -9 10 -8 11 6 5 10 -3 15
-9 12 -12z m20 -11 c-3 -5 3 -11 12 -13 15 -3 15 -5 -3 -10 -17 -4 -21 -2 -19
11 5 22 4 21 11 21 3 0 3 -4 -1 -9z m-142 -16 c-3 -9 -8 -14 -10 -11 -3 3 -2
9 2 15 9 16 15 13 8 -4z m121 -23 c3 -5 -1 -9 -9 -9 -8 0 -12 4 -9 9 3 4 7 8
9 8 2 0 6 -4 9 -8z m-40 -21 c3 -5 -2 -15 -12 -22 -15 -12 -16 -12 -5 2 7 9
10 19 6 22 -3 4 -4 7 0 7 3 0 8 -4 11 -9z m106 5 c0 -2 -7 -7 -16 -10 -8 -3
-12 -2 -9 4 6 10 25 14 25 6z m-200 -20 c0 -3 -4 -8 -10 -11 -5 -3 -10 -1 -10
4 0 6 5 11 10 11 6 0 10 -2 10 -4z m159 -32 c-14 -13 -16 -13 -16 0 0 8 5 12
10 9 7 -4 8 1 3 13 -6 15 -5 17 5 6 11 -10 10 -15 -2 -28z m41 6 c0 -5 -2 -10
-4 -10 -3 0 -8 5 -11 10 -3 6 -1 10 4 10 6 0 11 -4 11 -10z m-210 -16 c0 -8
-19 -13 -24 -6 -3 5 1 9 9 9 8 0 15 -2 15 -3z m68 -13 c-7 -9 -13 -18 -15 -20
-1 -2 -1 5 0 16 0 11 7 20 14 20 10 0 10 -4 1 -16z m147 -12 c-4 -5 -12 -9
-18 -8 -8 0 -8 2 1 6 10 4 9 9 -5 20 -17 13 -16 13 5 3 12 -6 20 -15 17 -21z
m-1038 -19 c18 -10 39 -31 49 -45 44 -68 -27 -298 -198 -640 -72 -144 -76
-152 -193 -330 -50 -77 -120 -189 -155 -250 -149 -257 -208 -331 -286 -361
-59 -23 -82 -9 -181 110 -140 167 -227 330 -285 533 -28 98 -31 275 -6 369 72
269 292 503 533 567 98 26 113 28 270 33 245 7 348 13 380 23 17 5 32 10 35
10 3 1 19 -8 37 -19z m898 0 c-3 -5 -12 -10 -18 -10 -7 0 -6 4 3 10 19 12 23
12 15 0z m-85 -20 c0 -5 -2 -10 -4 -10 -3 0 -8 5 -11 10 -3 6 -1 10 4 10 6 0
11 -4 11 -10z m40 4 c0 -8 -19 -13 -24 -6 -3 5 1 9 9 9 8 0 15 -2 15 -3z m210
-4 c0 -5 -5 -10 -11 -10 -5 0 -7 5 -4 10 3 6 8 10 11 10 2 0 4 -4 4 -10z
m-165 -20 c-3 -5 -12 -10 -18 -10 -7 0 -6 4 3 10 19 12 23 12 15 0z m92 -2
c-2 -7 3 -18 11 -24 16 -12 8 -35 -11 -33 -9 0 -9 2 1 6 6 2 12 9 12 15 0 6
-6 8 -14 5 -9 -4 -13 0 -11 11 2 9 4 20 4 25 1 4 4 7 7 7 3 0 4 -6 1 -12z m57
-14 c3 -8 2 -12 -4 -9 -6 3 -10 1 -10 -6 0 -7 -2 -10 -5 -7 -5 5 4 38 10 38 2
0 6 -7 9 -16z m5 -31 c-3 -21 2 -33 13 -27 7 5 8 3 3 -6 -6 -10 -10 -10 -20 3
-9 13 -15 14 -26 4 -7 -7 -5 -2 5 11 20 23 27 27 25 15z m36 -13 c3 -6 -1 -7
-9 -4 -18 7 -21 14 -7 14 6 0 13 -4 16 -10z m-201 -50 c-6 -6 -10 -3 -10 10 0
13 4 16 10 10 7 -7 7 -13 0 -20z m84 5 c-3 -3 -9 2 -12 12 -6 14 -5 15 5 6 7
-7 10 -15 7 -18z m67 6 c-9 -8 -36 -10 -30 -2 2 4 11 8 20 8 8 0 13 -3 10 -6z
m-8 -36 c0 -8 -4 -12 -9 -9 -5 3 -6 10 -3 15 9 13 12 11 12 -6z m-86 -12 c13
-16 12 -17 -3 -4 -10 7 -18 15 -18 17 0 8 8 3 21 -13z m14 -53 c-3 -5 -12 -10
-18 -10 -7 0 -6 4 3 10 19 12 23 12 15 0z m-50 -20 c-3 -5 -12 -10 -18 -10 -7
0 -6 4 3 10 19 12 23 12 15 0z m0 -52 c5 4 5 1 1 -6 -6 -10 -11 -10 -22 -1 -8
6 -14 14 -14 16 0 3 6 0 13 -6 8 -6 18 -7 22 -3z m-1672 -2475 c11 -10 28 -25
37 -33 47 -44 229 -211 251 -231 102 -92 204 -186 214 -196 6 -6 41 -35 76
-64 109 -91 310 -291 349 -349 111 -165 116 -347 13 -560 -40 -84 -58 -107
-147 -195 -109 -107 -183 -157 -327 -218 -203 -87 -256 -93 -544 -61 -175 19
-307 93 -477 266 -131 134 -172 320 -124 555 35 168 129 451 175 527 43 70 67
117 116 226 111 250 162 326 239 361 34 15 44 16 83 4 25 -8 54 -22 66 -32z"/>
<path d="M4183 6803 c1 -22 16 -26 29 -8 13 17 9 28 -6 16 -11 -9 -15 -9 -19
1 -3 7 -4 3 -4 -9z"/>
<path d="M4225 6798 c-6 -12 -18 -23 -28 -24 -23 -3 -30 -10 -33 -32 -2 -15
-1 -15 11 2 8 10 18 15 24 12 5 -4 12 -2 16 4 3 5 16 15 28 20 19 9 20 9 7 -2
-8 -7 -15 -22 -14 -33 0 -11 -5 -27 -10 -35 -9 -13 -9 -13 6 -2 10 8 19 9 22
3 4 -5 2 -12 -4 -16 -13 -8 -13 -25 1 -25 5 0 8 4 4 9 -8 13 10 22 29 15 9 -3
13 -11 9 -18 -3 -6 -3 -8 2 -4 4 4 14 3 21 -3 10 -8 15 -7 20 4 6 16 20 17 41
4 9 -6 11 -3 7 8 -4 9 -12 14 -19 11 -7 -2 -18 1 -25 7 -10 9 -11 9 -6 0 3 -6
2 -15 -4 -18 -13 -8 -42 14 -35 25 3 5 -5 6 -17 3 -18 -5 -21 -3 -11 7 6 7 9
19 6 27 -5 12 -7 12 -14 1 -7 -10 -9 -10 -9 3 0 8 5 20 11 26 8 8 8 16 0 30
-8 14 -11 14 -11 3 0 -11 -2 -12 -8 -3 -5 9 -11 6 -17 -9z m45 -64 c0 -8 -19
-13 -24 -6 -3 5 1 9 9 9 8 0 15 -2 15 -3z"/>
<path d="M4601 6753 c-1 -17 16 -25 25 -12 4 7 3 9 -4 5 -5 -3 -13 0 -15 6 -4
9 -6 10 -6 1z"/>
<path d="M4385 6730 c-3 -5 -2 -10 4 -10 5 0 13 5 16 10 3 6 2 10 -4 10 -5 0
-13 -4 -16 -10z"/>
<path d="M5235 6662 c-5 -4 -11 -14 -13 -22 -2 -8 0 -12 3 -8 4 4 17 1 28 -7
15 -11 24 -12 34 -3 7 6 14 8 14 4 3 -13 7 -26 9 -31 1 -3 3 -8 5 -12 9 -34
18 -43 31 -32 8 6 14 8 14 3 0 -4 6 0 13 10 13 17 14 18 20 2 4 -10 11 -15 16
-12 5 3 12 -2 16 -12 6 -16 7 -16 20 1 12 17 15 17 40 -10 l26 -28 -12 28 c-7
15 -16 27 -21 27 -5 0 -6 5 -3 10 4 6 1 9 -7 8 -7 -2 -12 2 -11 7 3 19 -37 11
-43 -8 -5 -15 -8 -17 -15 -6 -4 8 -3 16 3 20 15 10 -1 31 -18 25 -8 -3 -17 1
-20 9 -4 8 -10 12 -15 9 -14 -8 -11 -26 4 -18 6 4 9 4 5 -1 -4 -4 0 -14 10
-22 16 -12 16 -13 -3 -7 -17 5 -18 4 -5 -6 13 -10 13 -11 -2 -6 -10 3 -18 1
-18 -5 0 -6 -5 -7 -11 -3 -8 4 -6 10 6 17 17 9 17 10 -1 24 -10 8 -18 17 -16
21 1 4 -1 7 -5 7 -5 0 -14 4 -22 9 -10 6 -12 5 -7 -2 4 -7 2 -12 -3 -12 -6 0
-11 8 -11 18 0 14 -2 14 -9 3 -7 -11 -10 -11 -12 2 -2 9 -8 13 -14 9z m165
-56 c0 -3 -4 -8 -10 -11 -5 -3 -10 -1 -10 4 0 6 5 11 10 11 6 0 10 -2 10 -4z
m48 -38 c-2 -5 -8 -9 -13 -9 -5 0 -11 4 -13 9 -1 5 4 9 13 9 9 0 14 -4 13 -9z"/>
<path d="M5517 6562 c-21 -4 -18 -26 4 -28 31 -3 33 -5 20 -13 -16 -10 -8 -41
11 -41 10 0 9 3 -1 9 -12 8 -12 12 -2 24 8 11 9 17 1 22 -6 3 -8 10 -5 15 7
12 -6 17 -28 12z m18 -12 c-3 -5 -12 -10 -18 -10 -7 0 -6 4 3 10 19 12 23 12
15 0z"/>
<path d="M5525 6461 c-3 -5 -1 -12 4 -15 5 -3 11 1 15 9 6 16 -9 21 -19 6z"/>
<path d="M5645 6350 c3 -5 8 -10 11 -10 2 0 4 5 4 10 0 6 -5 10 -11 10 -5 0
-7 -4 -4 -10z"/>
<path d="M6055 6172 c-3 -8 0 -12 7 -9 7 2 21 -2 30 -10 15 -13 16 -13 13 4
-2 10 -4 20 -4 23 -2 12 -41 5 -46 -8z"/>
<path d="M6186 6057 c6 -16 -22 -31 -39 -20 -7 3 -9 3 -5 -2 4 -4 2 -13 -5
-19 -7 -6 -10 -10 -8 -9 2 2 10 -2 17 -8 8 -7 14 -7 19 1 3 5 0 10 -7 10 -9 0
-9 3 2 10 9 6 18 6 24 0 17 -17 29 -11 15 8 -13 16 -12 16 4 3 17 -13 17 -16
4 -26 -14 -10 -13 -12 3 -23 15 -9 19 -8 23 8 3 10 2 22 -1 25 -4 4 -7 14 -7
23 0 9 -4 17 -10 17 -5 0 -16 4 -22 8 -9 5 -11 3 -7 -6z"/>
<path d="M6298 6063 c6 -2 12 -8 12 -13 0 -9 -19 -8 -37 3 -6 4 -15 3 -18 -3
-4 -6 -1 -9 5 -8 7 2 14 -7 16 -19 3 -17 0 -21 -14 -17 -14 5 -15 4 -2 -5 14
-10 7 -16 -13 -12 -5 1 -6 -3 -3 -8 4 -5 0 -11 -6 -14 -16 -5 -60 22 -53 33 3
5 0 12 -7 16 -7 4 -10 3 -5 -1 4 -5 0 -17 -10 -27 -13 -14 -13 -18 -2 -18 11
0 11 -2 -1 -11 -13 -9 -13 -10 0 -6 8 2 14 10 13 16 -4 15 6 14 23 -4 9 -8 13
-15 9 -15 -3 0 -1 -9 5 -19 7 -14 7 -22 0 -26 -6 -4 -8 -11 -5 -16 4 -5 0 -9
-7 -9 -10 0 -10 -2 0 -9 8 -4 13 -11 13 -15 -3 -18 1 -19 13 -3 9 11 17 14 21
8 10 -17 -33 -57 -46 -44 -11 11 -49 6 -49 -6 0 -3 9 -17 19 -31 17 -22 18
-25 4 -36 -16 -11 -10 -34 8 -34 6 0 8 4 5 9 -8 12 16 60 33 66 11 4 11 2 2
-9 -6 -8 -10 -20 -9 -27 2 -8 -3 -13 -9 -11 -7 1 -13 -2 -13 -8 0 -6 4 -10 8
-10 14 0 43 36 36 43 -4 4 -1 13 6 22 7 8 10 15 6 15 -3 0 0 16 8 35 10 23 11
35 4 35 -6 0 -4 8 5 18 18 20 19 32 4 50 -8 10 -7 16 2 21 6 4 11 14 9 21 -2
8 5 16 15 18 12 2 17 -3 17 -17 0 -11 4 -23 10 -26 6 -4 7 1 3 11 -5 13 -3 15
8 9 11 -7 12 -6 3 6 -6 8 -10 22 -9 32 4 19 -6 22 -22 6 -8 -8 -13 -7 -18 2
-6 8 -4 10 5 4 9 -5 11 -4 6 4 -4 6 -4 11 1 10 27 -5 35 1 23 16 -7 8 -18 15
-24 14 -7 0 -6 -2 2 -6z m-38 -98 c-7 -8 -17 -15 -23 -15 -6 0 -2 7 9 15 25
19 30 19 14 0z m-23 -46 c-3 -11 0 -22 5 -26 7 -4 8 -1 3 7 -5 8 -4 11 3 7 6
-5 8 1 5 15 -3 13 -2 19 2 15 17 -15 13 -37 -8 -52 -31 -22 -38 -19 -27 11 7
19 7 31 -1 40 -10 12 -8 13 5 8 11 -4 16 -14 13 -25z m-52 -109 c-3 -5 2 -10
11 -10 10 0 15 -3 11 -6 -10 -10 -39 5 -32 16 3 5 8 10 11 10 3 0 2 -4 -1 -10z
m52 -5 c0 -8 -4 -12 -9 -9 -5 3 -6 10 -3 15 9 13 12 11 12 -6z"/>
<path d="M6196 5709 c-24 -13 -35 -24 -29 -30 13 -13 34 -3 56 26 10 14 17 25
15 25 -2 -1 -20 -10 -42 -21z"/>
</g>
</svg>
