<svg xmlns="http://www.w3.org/2000/svg" xmlns:xlink="http://www.w3.org/1999/xlink" viewBox="0 0 399.25 342">
  <defs>
    <symbol id="kalender" data-name="kalender" viewBox="0 0 399.25 342">
      <g>
        <path d="M29,341.5A28.3,28.3,0,0,1,.75,313.24V.5h398V313.24a28.3,28.3,0,0,1-28.26,28.26Z" fill="#fff"/>
        <path d="M398.25,1V313.24A27.79,27.79,0,0,1,370.49,341H29A27.79,27.79,0,0,1,1.25,313.24V1h397m1-1H.25V313.24A28.76,28.76,0,0,0,29,342H370.49a28.76,28.76,0,0,0,28.76-28.76V0Z"/>
      </g>
      <path d="M398.25,1V43H1.25V1h397m1-1H.25V44h399V0Z"/>
      <path d="M385.67,21.47,368.31,9.08a.58.58,0,0,0-.62,0,.62.62,0,0,0-.32.55V34.38a.62.62,0,0,0,.32.55A.55.55,0,0,0,368,35a.6.6,0,0,0,.34-.11l17.36-12.4a.59.59,0,0,0,.26-.51A.64.64,0,0,0,385.67,21.47Z"/>
      <path d="M13.3,22.5l18,12.39a.62.62,0,0,0,.64,0,.63.63,0,0,0,.33-.55V9.59A.63.63,0,0,0,31.92,9,.59.59,0,0,0,31.63,9a.63.63,0,0,0-.35.11l-18,12.39a.64.64,0,0,0,0,1Z"/>
      <text transform="translate(189.83 27.55)" font-size="18" font-family="Raleway-Regular, Raleway"><tspan letter-spacing="0em">M</tspan><tspan x="15.7" y="0">aj</tspan></text>
      <line x1="160.75" y1="45" x2="161.75" y2="341.5" fill="none" stroke="#000" stroke-miterlimit="10"/>
      <line x1="237.75" y1="45" x2="238.75" y2="341.5" fill="none" stroke="#000" stroke-miterlimit="10"/>
      <line x1="317.75" y1="44" x2="318.75" y2="341.5" fill="none" stroke="#000" stroke-miterlimit="10"/>
      <line x1="78.75" y1="44" x2="79.75" y2="341.5" fill="none" stroke="#000" stroke-miterlimit="10"/>
      <line x1="398.75" y1="90.5" y2="90.75" fill="none" stroke="#000" stroke-miterlimit="10"/>
      <line x1="398.75" y1="141.5" y2="141.75" fill="none" stroke="#000" stroke-miterlimit="10"/>
      <line x1="398.75" y1="191.5" y2="191.75" fill="none" stroke="#000" stroke-miterlimit="10"/>
      <line x1="398.75" y1="240.5" y2="240.75" fill="none" stroke="#000" stroke-miterlimit="10"/>
      <line x1="398.75" y1="291.5" y2="291.75" fill="none" stroke="#000" stroke-miterlimit="10"/>
    </symbol>
  </defs>
  <title>kalender</title>
  <g id="Layer_1" data-name="Layer 1">
    <use id="kalender-3" data-name="kalender" width="399.25" height="342" xlink:href="#kalender"/>
  </g>
</svg>
